<svg xmlns="http://www.w3.org/2000/svg" width="345" height="370" viewBox="0 0 345 370"><defs><clipPath id="a"><path d="M0 50h320v320H0z"/></clipPath></defs><path fill="none" stroke="#000" d="M37.647 343.333H320M37.647 343.333V50" stroke-width="2"/><path fill="none" stroke="#11accd" d="M37.647 330l.5-.093.5-.094.5-.095.5-.095.5-.096.5-.096.5-.098.5-.097.5-.099.5-.099.5-.1.5-.101.5-.101.5-.102.5-.103.5-.104.5-.104.5-.105.5-.106.5-.106.5-.107.5-.108.5-.109.5-.109.5-.111.5-.111.5-.111.5-.113.5-.113.5-.114.5-.115.5-.116.5-.117.5-.117.5-.118.5-.119.5-.12.5-.121.5-.121.5-.123.5-.123.5-.124.5-.125.5-.126.5-.126.5-.128.5-.128.5-.13.5-.13.5-.131.5-.132.5-.133.5-.134.5-.135.5-.136.5-.137.5-.138.5-.138.5-.14.5-.141.5-.141.5-.143.5-.144.5-.144.5-.146.5-.147.5-.147.5-.149.5-.15.5-.151.5-.152.5-.153.5-.154.5-.155.5-.156.5-.157.5-.158.5-.16.5-.161.5-.161.5-.163.5-.164.5-.165.5-.166.5-.168.5-.169.5-.169.5-.171.5-.172.5-.174.5-.174.5-.176.5-.177.5-.179.5-.179.5-.181.5-.182.5-.183.5-.185.5-.186.5-.187.5-.188.5-.19.5-.191.5-.193.5-.194.5-.195.5-.196.5-.198.5-.2.5-.2.5-.202.5-.204.5-.205.5-.206.5-.208.5-.209.5-.211.5-.212.5-.214.5-.215.5-.217.5-.218.5-.22.5-.221.5-.223.5-.224.5-.226.5-.228.5-.229.5-.231.5-.232.5-.234.5-.236.5-.237.5-.239.5-.24.5-.243.5-.243.5-.246.5-.248.5-.249.5-.25.5-.253.5-.254.5-.257.5-.258.5-.259.5-.262.5-.263.5-.265.5-.268.5-.268.5-.271.5-.273.5-.275.5-.276.5-.279.5-.28.5-.283.5-.284.5-.286.5-.289.5-.29.5-.292.5-.295.5-.296.5-.299.5-.301.5-.302.5-.305.5-.307.5-.31.5-.311.5-.313.5-.316.5-.318.5-.32.5-.323.5-.324.5-.327.5-.329.5-.332.5-.334.5-.336.5-.338.5-.341.5-.343.5-.346.5-.348.5-.35.5-.353.5-.356.5-.358.5-.36.5-.363.5-.366.5-.368.5-.37.5-.373.5-.376.5-.379.5-.381.5-.383.5-.387.5-.389.5-.392.5-.394.5-.398.5-.4.5-.403.5-.405.5-.409.5-.411.5-.415.5-.417.5-.42.5-.423.5-.426.5-.429.5-.432.5-.435.5-.438.5-.441.5-.445.5-.447.5-.45.5-.454.5-.457.5-.46.5-.463.5-.466.5-.47.5-.473.5-.476.5-.48.5-.483.5-.486.5-.49.5-.493.5-.497.5-.5.5-.503.5-.507.5-.511.5-.514.5-.518.5-.521.5-.526.5-.528.5-.533.5-.536.5-.54.5-.544.5-.547.5-.551.5-.556.5-.559.5-.563.5-.567.5-.57.5-.575.5-.579.5-.583.5-.587.5-.591.5-.596.5-.599.5-.604.5-.607.5-.613.5-.616.5-.621.5-.625.5-.629.5-.634.5-.638.5-.643.5-.647.5-.652.5-.656.5-.661.5-.665.5-.67.5-.675.5-.68.5-.684.5-.689.5-.694.5-.699.5-.703.5-.709.5-.713.5-.719.5-.723.5-.729.5-.734.5-.739.5-.743.5-.75.5-.754.5-.76.5-.765.5-.77.5-.776.5-.781.5-.787.5-.792.5-.798.5-.803.5-.809.5-.814.5-.82.5-.826.5-.832.5-.838.5-.843.5-.849.5-.856.5-.861.5-.867.5-.873.5-.88.5-.885.5-.892.5-.898.5-.904.5-.911.5-.917.5-.923.5-.93.5-.937.5-.943.5-.949.5-.956.5-.963.5-.969.5-.977.5-.983.5-.99.5-.997.5-1.004.5-1.011.5-1.018.5-1.025.5-1.032.5-1.04.5-1.047.5-1.054.5-1.061.5-1.069.5-1.077.5-1.084.5-1.091.5-1.099.5-1.107.5-1.115.5-1.122.5-1.13.5-1.138.5-1.146.5-1.154.5-1.162.5-1.171.5-1.178.5-1.187.5-1.195.5-1.203.5-1.212.5-1.22.5-1.229.5-1.238.5-1.246.5-1.254.5-1.264.5-1.272.5-1.281.5-1.291.5-1.299.5-1.308.5-1.318.5-1.326.5-1.336.5-1.346.5-1.354.5-1.365.5-1.373.5-1.384.5-1.393.5-1.402.5-1.413.5-1.422.5-1.433.5-1.442.5-1.453.5-1.462.5-1.473.5-1.483.5-1.494.5-1.504.5-1.514.5-1.526.5-1.535.5-1.547.5-1.557.5-1.568.5-1.58.5-1.59.5-1.601.5-1.613.5-1.624.5-1.635.5-1.646.5-1.659.5-1.669.5-1.682.5-1.693.5-1.705.5-1.717.5-1.729.5-1.74.5-1.754.5-1.766.5-1.777.5-1.79.5-1.803.5-1.816.5-1.828.5-1.84.5-1.854.5-1.867.5-1.88.5-1.893.5-1.906.5-1.92.5-1.932.5-1.947.5-1.96.5-1.973.5-1.988.5-2.001.5-2.016.5-2.03.5-2.043.5-2.058.5-2.072.5-2.087.5-2.102.5-2.116.5-2.13.5-2.147.5-2.16.5-2.177.5-2.19.5-2.207.5-2.222.5-2.238.5-2.253.5-2.269.5-2.285.5-2.3.5-2.317.5-2.333.5-2.35.5-2.366.5-2.382.5-2.399.5-2.416.5-2.432.5-2.45.5-2.467.5-2.484.5-2.501.5-2.52.5-2.536.5-2.554.5-2.572.5-2.59.5-2.609.5-2.626.5-2.645.5-2.663.5-2.682.5-2.701.5-2.72.5-2.738.5-2.758.5-2.777.5-2.797.5-2.816.5-2.836.5-2.855.5-2.876.5-2.896.5-2.916.5-2.936.5-2.957.5-2.977.5-2.999.5-3.019.5-3.04.5-3.062.5-3.083.5-3.105.5-3.126.5-3.149.5-3.17.5-3.192.5-3.215.5-3.237.5-3.26.5-3.283.5-3.306.5-3.328.5-3.352.5-3.376.5-3.399.5-3.423.5-3.447.5-3.47.5-3.496.5-3.519.5-3.544.5-3.569.5-3.594.5-3.62.5-3.644.5-3.67.5-3.696.5-3.721.5-3.747.5-3.774.5-3.8.5-3.827.5-3.853.5-3.88.5-3.908.5-3.935.5-3.962.5-3.99.5-4.018.5-4.046.5-4.074.5-4.103.5-4.132.5-4.16.5-4.189.5-4.219.5-4.249.5-4.278.5-4.307.5-4.338.5-4.369.5-4.399.5-4.43.5-4.46.5-4.492.5-4.523.5-4.555.5-4.587.5-4.619.5-4.651.5-4.684.5-4.716" stroke-width="3" clip-path="url(#a)"/></svg>
